<svg id="visual" viewBox="0 0 960 540" width="960" height="540" xmlns="http://www.w3.org/2000/svg" xmlns:xlink="http://www.w3.org/1999/xlink" version="1.1"><rect x="0" y="0" width="960" height="540" fill="#FFFFFF"></rect><path d="M0 441L16 424.7C32 408.3 64 375.7 96 354.5C128 333.3 160 323.7 192 327.7C224 331.7 256 349.3 288 348C320 346.7 352 326.3 384 340.3C416 354.3 448 402.7 480 403C512 403.3 544 355.7 576 330.5C608 305.3 640 302.7 672 313.8C704 325 736 350 768 369.3C800 388.7 832 402.3 864 397C896 391.7 928 367.3 944 355.2L960 343L960 541L944 541C928 541 896 541 864 541C832 541 800 541 768 541C736 541 704 541 672 541C640 541 608 541 576 541C544 541 512 541 480 541C448 541 416 541 384 541C352 541 320 541 288 541C256 541 224 541 192 541C160 541 128 541 96 541C64 541 32 541 16 541L0 541Z" fill="#71aaff" stroke-linecap="round" stroke-linejoin="miter"></path></svg>